<svg width="2028" xmlns="http://www.w3.org/2000/svg" height="528" id="screenshot-c104b184-2eb3-808b-8008-2e0bc9182675" viewBox="0 0 2028 528" xmlns:xlink="http://www.w3.org/1999/xlink" fill="none" version="1.1"><g id="shape-c104b184-2eb3-808b-8008-2e0bc9182675" rx="0" ry="0"><g id="shape-c104b184-2eb3-808b-8008-2e071513d317"><g class="fills" id="fills-c104b184-2eb3-808b-8008-2e071513d317"><rect rx="167" ry="167" x="0" y="0" transform="matrix(1.000000, 0.000000, 0.000000, 1.000000, 0.000000, 0.000000)" width="2027.9999999999995" height="528" style="fill: rgb(255, 255, 255);"/></g></g><g id="shape-c104b184-2eb3-808b-8008-2e071513d319"><g class="fills" id="fills-c104b184-2eb3-808b-8008-2e071513d319"><rect rx="0" ry="0" x="1244" y="233" transform="matrix(1.000000, 0.000000, 0.000000, 1.000000, 0.000000, 0.000000)" width="35" height="191" style="fill: rgb(0, 0, 0);"/></g></g><g id="shape-c104b184-2eb3-808b-8008-2e071513d31a"><g class="fills" id="fills-c104b184-2eb3-808b-8008-2e071513d31a"><rect rx="0" ry="0" x="1279" y="389" transform="matrix(1.000000, 0.000000, 0.000000, 1.000000, 0.000000, 0.000000)" width="95" height="35" style="fill: rgb(0, 0, 0);"/></g></g><g id="shape-c104b184-2eb3-808b-8008-2e071513d31b"><g class="fills" id="fills-c104b184-2eb3-808b-8008-2e071513d31b"><rect rx="0" ry="0" x="1374" y="233" transform="matrix(1.000000, 0.000000, 0.000000, 1.000000, 0.000000, 0.000000)" width="35" height="191" style="fill: rgb(0, 0, 0);"/></g></g><g id="shape-c104b184-2eb3-808b-8008-2e071513d31c"><g class="fills" id="fills-c104b184-2eb3-808b-8008-2e071513d31c"><rect rx="0" ry="0" x="1478" y="198" transform="matrix(1.000000, 0.000000, 0.000000, 1.000000, 0.000000, 0.000000)" width="35" height="226" style="fill: rgb(0, 0, 0);"/></g></g><g id="shape-c104b184-2eb3-808b-8008-2e071513d31d"><g class="fills" id="fills-c104b184-2eb3-808b-8008-2e071513d31d"><rect rx="0" ry="0" x="1443" y="233" transform="matrix(1.000000, 0.000000, 0.000000, 1.000000, 0.000000, 0.000000)" width="105" height="35" style="fill: rgb(0, 0, 0);"/></g></g><g id="shape-c104b184-2eb3-808b-8008-2e071513d31e"><g class="fills" id="fills-c104b184-2eb3-808b-8008-2e071513d31e"><rect rx="0" ry="0" x="1513" y="389" transform="matrix(1.000000, 0.000000, 0.000000, 1.000000, 0.000000, 0.000000)" width="35" height="35" style="fill: rgb(0, 0, 0);"/></g></g><g id="shape-c104b184-2eb3-808b-8008-2e071513d31f"><g class="fills" id="fills-c104b184-2eb3-808b-8008-2e071513d31f"><path d="M1033.39990234375,185.06976318359375C1042.79931640625,169.60003662109375,1065.19970703125,169.60003662109375,1074.599365234375,185.06976318359375L1080.499755859375,194.91986083984375C1084.799560546875,201.97991943359375,1092.299560546875,206.35980224609375,1100.599365234375,206.51995849609375L1112.099365234375,206.74017333984375C1130.099365234375,207.08001708984375,1141.400146484375,226.50970458984375,1132.599365234375,242.33001708984375L1127.099365234375,252.39984130859375C1123.099365234375,259.62005615234375,1123.099365234375,268.37982177734375,1127.099365234375,275.60003662109375L1132.599365234375,285.66986083984375C1141.400146484375,301.4902038574219,1130.099365234375,320.9198913574219,1112.099365234375,321.2597351074219L1100.599365234375,321.4799499511719C1092.299560546875,321.6401062011719,1084.799560546875,326.0199890136719,1080.499755859375,333.0800476074219L1074.599365234375,342.9301452636719C1065.19970703125,358.3998718261719,1042.79931640625,358.3998718261719,1033.39990234375,342.9301452636719L1027.49951171875,333.0800476074219C1023.19970703125,326.0199890136719,1015.69970703125,321.6401062011719,1007.39990234375,321.4799499511719L995.89990234375,321.2597351074219C977.89990234375,320.9198913574219,966.59912109375,301.4902038574219,975.39990234375,285.66986083984375L980.89990234375,275.60003662109375C984.89990234375,268.37982177734375,984.89990234375,259.62005615234375,980.89990234375,252.39984130859375L975.39990234375,242.33001708984375C966.59912109375,226.50970458984375,977.89990234375,207.08001708984375,995.89990234375,206.74017333984375L1007.39990234375,206.51995849609375C1015.69970703125,206.35980224609375,1023.19970703125,201.97991943359375,1027.49951171875,194.91986083984375L1033.39990234375,185.06976318359375Z" style="fill: rgb(0, 0, 0);"/></g></g><g id="shape-c104b184-2eb3-808b-8008-2e071513d320"><g class="fills" id="fills-c104b184-2eb3-808b-8008-2e071513d320"><path d="M1716,181.14007568359375C1725.5,166.83001708984375,1746.5,166.83001708984375,1756,181.14007568359375L1770.2001953125,202.60980224609375C1773.400390625,207.41986083984375,1778.2001953125,210.91009521484375,1783.7998046875,212.45989990234375L1808.599609375,219.37982177734375C1825.2001953125,223.97991943359375,1831.7001953125,243.95989990234375,1821,257.41009521484375L1805,277.60003662109375C1801.400390625,282.12005615234375,1799.5,287.76995849609375,1799.7998046875,293.5400085449219L1800.900390625,319.2797546386719C1801.599609375,336.4399108886719,1784.599609375,348.7797546386719,1768.5,342.7900085449219L1744.400390625,333.7900085449219C1739,331.7797546386719,1733,331.7797546386719,1727.599609375,333.7900085449219L1703.5,342.7900085449219C1687.400390625,348.7797546386719,1670.400390625,336.4301452636719,1671.099609375,319.2797546386719L1672.2001953125,293.5400085449219C1672.5,287.76995849609375,1670.599609375,282.12005615234375,1667,277.60003662109375L1651,257.41009521484375C1640.2998046875,243.95989990234375,1646.7998046875,223.97991943359375,1663.400390625,219.37982177734375L1688.2001953125,212.45989990234375C1693.7998046875,210.91009521484375,1698.599609375,207.41986083984375,1701.7998046875,202.60980224609375L1716,181.14007568359375Z" style="fill: rgb(0, 0, 0);"/></g></g><g id="shape-c104b184-2eb3-808b-8008-2e071513d324"><g class="fills" id="fills-c104b184-2eb3-808b-8008-2e071513d324"><ellipse cx="1054.5000000000005" cy="263.5" rx="160.50000000000045" ry="160.5" transform="matrix(1.000000, 0.000000, 0.000000, 1.000000, 0.000000, 0.000000)"/></g><g id="strokes-0f8d9426-c3b5-80ab-8008-30b49d7d83c5-c104b184-2eb3-808b-8008-2e071513d324" class="strokes"><g class="inner-stroke-shape" transform="matrix(1.000000, 0.000000, 0.000000, 1.000000, 0.000000, 0.000000)"><defs><clipPath id="inner-stroke-render-11-c104b184-2eb3-808b-8008-2e071513d324-0"><use href="#stroke-shape-render-11-c104b184-2eb3-808b-8008-2e071513d324-0"/></clipPath><ellipse cx="1054.5000000000005" cy="263.5" rx="160.50000000000045" ry="160.5" id="stroke-shape-render-11-c104b184-2eb3-808b-8008-2e071513d324-0" style="fill: none; stroke-width: 78; stroke: rgb(0, 0, 0); stroke-opacity: 1;"/></defs><use href="#stroke-shape-render-11-c104b184-2eb3-808b-8008-2e071513d324-0" clip-path="url('#inner-stroke-render-11-c104b184-2eb3-808b-8008-2e071513d324-0')"/></g></g></g><g id="shape-c104b184-2eb3-808b-8008-2e071513d325"><g class="fills" id="fills-c104b184-2eb3-808b-8008-2e071513d325"><ellipse cx="1739.5000000000002" cy="266.5" rx="160.50000000000023" ry="160.5" transform="matrix(1.000000, 0.000000, 0.000000, 1.000000, 0.000000, 0.000000)"/></g><g id="strokes-0f8d9426-c3b5-80ab-8008-30b49d7e4399-c104b184-2eb3-808b-8008-2e071513d325" class="strokes"><g class="inner-stroke-shape" transform="matrix(1.000000, 0.000000, 0.000000, 1.000000, 0.000000, 0.000000)"><defs><clipPath id="inner-stroke-render-12-c104b184-2eb3-808b-8008-2e071513d325-0"><use href="#stroke-shape-render-12-c104b184-2eb3-808b-8008-2e071513d325-0"/></clipPath><ellipse cx="1739.5000000000002" cy="266.5" rx="160.50000000000023" ry="160.5" id="stroke-shape-render-12-c104b184-2eb3-808b-8008-2e071513d325-0" style="fill: none; stroke-width: 78; stroke: rgb(0, 0, 0); stroke-opacity: 1;"/></defs><use href="#stroke-shape-render-12-c104b184-2eb3-808b-8008-2e071513d325-0" clip-path="url('#inner-stroke-render-12-c104b184-2eb3-808b-8008-2e071513d325-0')"/></g></g></g><g id="shape-c104b184-2eb3-808b-8008-2e071513d326"><g class="fills" id="fills-c104b184-2eb3-808b-8008-2e071513d326"><path d="M1739.5,105.99993896484375C1828.031982421875,105.99993896484375,1900,177.79217529296875,1900,266.49993896484375C1900,355.2077331542969,1828.031982421875,426.9999694824219,1739.5,426.9999694824219C1650.968017578125,426.9999694824219,1579,355.2077331542969,1579,266.49993896484375C1579,177.79217529296875,1650.968017578125,105.99993896484375,1739.5,105.99993896484375Z"/></g><g id="strokes-0f8d9426-c3b5-80ab-8008-30b49d7ee76b-c104b184-2eb3-808b-8008-2e071513d326" class="strokes"><g class="inner-stroke-shape"><defs><clipPath id="inner-stroke-render-13-c104b184-2eb3-808b-8008-2e071513d326-0"><use href="#stroke-shape-render-13-c104b184-2eb3-808b-8008-2e071513d326-0"/></clipPath><path d="M1739.5,105.99993896484375C1828.031982421875,105.99993896484375,1900,177.79217529296875,1900,266.49993896484375C1900,355.2077331542969,1828.031982421875,426.9999694824219,1739.5,426.9999694824219C1650.968017578125,426.9999694824219,1579,355.2077331542969,1579,266.49993896484375C1579,177.79217529296875,1650.968017578125,105.99993896484375,1739.5,105.99993896484375Z" id="stroke-shape-render-13-c104b184-2eb3-808b-8008-2e071513d326-0" style="fill: none; stroke-width: 78; stroke: rgb(0, 0, 0); stroke-opacity: 0.3;"/></defs><use href="#stroke-shape-render-13-c104b184-2eb3-808b-8008-2e071513d326-0" clip-path="url('#inner-stroke-render-13-c104b184-2eb3-808b-8008-2e071513d326-0')"/></g></g></g><g id="shape-c104b184-2eb3-808b-8008-2e073a0f787b"><g class="fills" id="fills-c104b184-2eb3-808b-8008-2e073a0f787b"><rect rx="0" ry="0" x="146" y="232" transform="matrix(1.000000, 0.000000, 0.000000, 1.000000, 0.000000, 0.000000)" width="35" height="191" style="fill: rgb(0, 0, 0);"/></g></g><g id="shape-c104b184-2eb3-808b-8008-2e07903166e3"><g class="fills" id="fills-c104b184-2eb3-808b-8008-2e07903166e3"><rect rx="0" ry="0" x="567" y="232" transform="matrix(1.000000, 0.000000, 0.000000, 1.000000, 0.000000, 0.000000)" width="35" height="191" style="fill: rgb(0, 0, 0);"/></g></g><g id="shape-c104b184-2eb3-808b-8008-2e073a0f787c"><g class="fills" id="fills-c104b184-2eb3-808b-8008-2e073a0f787c"><rect rx="0" ry="0" x="181" y="232" transform="matrix(1.000000, 0.000000, 0.000000, 1.000000, 0.000000, 0.000000)" width="127" height="35" style="fill: rgb(0, 0, 0);"/></g></g><g id="shape-c104b184-2eb3-808b-8008-2e07a833473e"><g class="fills" id="fills-c104b184-2eb3-808b-8008-2e07a833473e"><rect rx="0" ry="0" x="637" y="232" transform="matrix(1.000000, 0.000000, 0.000000, 1.000000, 0.000000, 0.000000)" width="35" height="35" style="fill: rgb(0, 0, 0);"/></g></g><g id="shape-c104b184-2eb3-808b-8008-2e07a308122a"><g class="fills" id="fills-c104b184-2eb3-808b-8008-2e07a308122a"><rect rx="0" ry="0" x="602" y="267" transform="matrix(1.000000, 0.000000, 0.000000, 1.000000, 0.000000, 0.000000)" width="35" height="35" style="fill: rgb(0, 0, 0);"/></g></g><g id="shape-c104b184-2eb3-808b-8008-2e073a0f787d"><g class="fills" id="fills-c104b184-2eb3-808b-8008-2e073a0f787d"><rect rx="0" ry="0" x="181" y="388" transform="matrix(1.000000, 0.000000, 0.000000, 1.000000, 0.000000, 0.000000)" width="127" height="35" style="fill: rgb(0, 0, 0);"/></g></g><g id="shape-c104b184-2eb3-808b-8008-2e074831cb61"><g class="fills" id="fills-c104b184-2eb3-808b-8008-2e074831cb61"><ellipse cx="437.5" cy="327.5" rx="95.5" ry="95.5" transform="matrix(1.000000, 0.000000, 0.000000, 1.000000, 0.000000, 0.000000)"/></g><g id="strokes-0f8d9426-c3b5-80ab-8008-30b49d80fdcd-c104b184-2eb3-808b-8008-2e074831cb61" class="strokes"><g class="inner-stroke-shape" transform="matrix(1.000000, 0.000000, 0.000000, 1.000000, 0.000000, 0.000000)"><defs><clipPath id="inner-stroke-render-20-c104b184-2eb3-808b-8008-2e074831cb61-0"><use href="#stroke-shape-render-20-c104b184-2eb3-808b-8008-2e074831cb61-0"/></clipPath><ellipse cx="437.5" cy="327.5" rx="95.5" ry="95.5" id="stroke-shape-render-20-c104b184-2eb3-808b-8008-2e074831cb61-0" style="fill: none; stroke-width: 70; stroke: rgb(0, 0, 0); stroke-opacity: 1;"/></defs><use href="#stroke-shape-render-20-c104b184-2eb3-808b-8008-2e074831cb61-0" clip-path="url('#inner-stroke-render-20-c104b184-2eb3-808b-8008-2e074831cb61-0')"/></g></g></g><g id="shape-c104b184-2eb3-808b-8008-2e0aeee877c4" rx="0" ry="0"><g id="shape-05152e2a-cc86-8030-8008-2e0893d07fc5"><g class="fills" id="fills-05152e2a-cc86-8030-8008-2e0893d07fc5"><path d="M672,327L863,327L863,327C863,379.98382568359375,820.431640625,423,768,423L767,423C714.568359375,423,672,379.98382568359375,672,327L672,327"/></g><g id="strokes-0f8d9426-c3b5-80ab-8008-30b49d81abcc-05152e2a-cc86-8030-8008-2e0893d07fc5" class="strokes"><g class="inner-stroke-shape"><defs><clipPath id="inner-stroke-render-22-05152e2a-cc86-8030-8008-2e0893d07fc5-0"><use href="#stroke-shape-render-22-05152e2a-cc86-8030-8008-2e0893d07fc5-0"/></clipPath><path d="M672,327L863,327L863,327C863,379.98382568359375,820.431640625,423,768,423L767,423C714.568359375,423,672,379.98382568359375,672,327L672,327" id="stroke-shape-render-22-05152e2a-cc86-8030-8008-2e0893d07fc5-0" style="fill: none; stroke-width: 70; stroke: rgb(0, 0, 0); stroke-opacity: 1;"/></defs><use href="#stroke-shape-render-22-05152e2a-cc86-8030-8008-2e0893d07fc5-0" clip-path="url('#inner-stroke-render-22-05152e2a-cc86-8030-8008-2e0893d07fc5-0')"/></g></g></g><g id="shape-05152e2a-cc86-8030-8008-2e08b8e005c3"><g class="fills" id="fills-05152e2a-cc86-8030-8008-2e08b8e005c3"><path d="M707,327L828,327L828,327C828,360.66680908203125,801.03271484375,388,767.81640625,388L767.18359375,388C733.96728515625,388,707,360.66680908203125,707,327L707,327" style="fill: rgb(255, 255, 255); fill-opacity: 1;"/></g></g><g id="shape-c104b184-2eb3-808b-8008-2e0a5adc5b4b"><g class="fills" id="fills-c104b184-2eb3-808b-8008-2e0a5adc5b4b"><path d="M829.033203125,282L863,316L863,343L863,371L836,394L776,335.03302001953125L829.033203125,282" style="fill: rgb(255, 255, 255); fill-opacity: 1;"/></g></g><g id="shape-c104b184-2eb3-808b-8008-2e083ba8b4c6"><g class="fills" id="fills-c104b184-2eb3-808b-8008-2e083ba8b4c6"><path d="M767,232 h1 a95,95 0 0 1 95,95 v0 a0,0 0 0 1 0,0 h-191 a0,0 0 0 1 0,0 v0 a95,95 0 0 1 95,-95 z" x="672" y="232" transform="matrix(1.000000, 0.000000, 0.000000, 1.000000, 0.000000, 0.000000)" width="191" height="95"/></g><g id="strokes-0f8d9426-c3b5-80ab-8008-30b49d83565f-c104b184-2eb3-808b-8008-2e083ba8b4c6" class="strokes"><g class="inner-stroke-shape" transform="matrix(1.000000, 0.000000, 0.000000, 1.000000, 0.000000, 0.000000)"><defs><clipPath id="inner-stroke-render-25-c104b184-2eb3-808b-8008-2e083ba8b4c6-0"><use href="#stroke-shape-render-25-c104b184-2eb3-808b-8008-2e083ba8b4c6-0"/></clipPath><path d="M767,232 h1 a95,95 0 0 1 95,95 v0 a0,0 0 0 1 0,0 h-191 a0,0 0 0 1 0,0 v0 a95,95 0 0 1 95,-95 z" x="672" y="232" width="191" height="95" id="stroke-shape-render-25-c104b184-2eb3-808b-8008-2e083ba8b4c6-0" style="fill: none; stroke-width: 70; stroke: rgb(0, 0, 0); stroke-opacity: 1;"/></defs><use href="#stroke-shape-render-25-c104b184-2eb3-808b-8008-2e083ba8b4c6-0" clip-path="url('#inner-stroke-render-25-c104b184-2eb3-808b-8008-2e083ba8b4c6-0')"/></g></g></g></g></g></svg>